<mxfile host="65bd71144e">
    <diagram id="rwZVFnb9-4XuviEcM_qo" name="페이지-1">
        <mxGraphModel dx="1685" dy="1605" grid="0" gridSize="10" guides="1" tooltips="1" connect="1" arrows="1" fold="1" page="0" pageScale="1" pageWidth="827" pageHeight="1169" math="0" shadow="0">
            <root>
                <mxCell id="0"/>
                <mxCell id="1" parent="0"/>
                <mxCell id="44" value="" style="edgeStyle=none;html=1;fontSize=14;rounded=1;" edge="1" parent="1" source="50" target="57">
                    <mxGeometry relative="1" as="geometry"/>
                </mxCell>
                <mxCell id="45" value="" style="edgeStyle=none;html=1;fontSize=14;rounded=1;" edge="1" parent="1" source="50" target="51">
                    <mxGeometry relative="1" as="geometry"/>
                </mxCell>
                <mxCell id="46" style="edgeStyle=none;html=1;exitX=0.5;exitY=1;exitDx=0;exitDy=0;entryX=0.5;entryY=0;entryDx=0;entryDy=0;fontSize=14;rounded=1;" edge="1" parent="1" source="50" target="71">
                    <mxGeometry relative="1" as="geometry">
                        <Array as="points">
                            <mxPoint x="261" y="260"/>
                            <mxPoint x="421" y="260"/>
                        </Array>
                    </mxGeometry>
                </mxCell>
                <mxCell id="47" style="edgeStyle=orthogonalEdgeStyle;html=1;exitX=0.5;exitY=1;exitDx=0;exitDy=0;entryX=0.5;entryY=0;entryDx=0;entryDy=0;" edge="1" parent="1" source="50" target="74">
                    <mxGeometry relative="1" as="geometry"/>
                </mxCell>
                <mxCell id="48" style="edgeStyle=orthogonalEdgeStyle;rounded=1;orthogonalLoop=1;jettySize=auto;html=1;exitX=0;exitY=0.5;exitDx=0;exitDy=0;entryX=0.5;entryY=1;entryDx=0;entryDy=0;" edge="1" parent="1" source="50" target="81">
                    <mxGeometry relative="1" as="geometry"/>
                </mxCell>
                <mxCell id="49" style="edgeStyle=orthogonalEdgeStyle;rounded=1;orthogonalLoop=1;jettySize=auto;html=1;exitX=0.5;exitY=1;exitDx=0;exitDy=0;fontSize=20;" edge="1" parent="1" source="50" target="83">
                    <mxGeometry relative="1" as="geometry"/>
                </mxCell>
                <mxCell id="50" value="&lt;b&gt;&lt;font style=&quot;font-size: 14px&quot;&gt;Listener&lt;/font&gt;&lt;/b&gt;" style="rounded=1;whiteSpace=wrap;html=1;" vertex="1" parent="1">
                    <mxGeometry x="201" y="200" width="120" height="40" as="geometry"/>
                </mxCell>
                <mxCell id="51" value="&lt;span style=&quot;font-size: 14px&quot;&gt;&lt;b&gt;Mode&lt;br&gt;Button&lt;/b&gt;&lt;/span&gt;" style="rounded=1;whiteSpace=wrap;html=1;" vertex="1" parent="1">
                    <mxGeometry x="201" y="280" width="120" height="40" as="geometry"/>
                </mxCell>
                <mxCell id="52" value="" style="edgeStyle=orthogonalEdgeStyle;html=1;" edge="1" parent="1" source="57" target="68">
                    <mxGeometry relative="1" as="geometry"/>
                </mxCell>
                <mxCell id="53" style="edgeStyle=orthogonalEdgeStyle;html=1;exitX=0;exitY=0.5;exitDx=0;exitDy=0;entryX=0.5;entryY=1;entryDx=0;entryDy=0;" edge="1" parent="1" source="57" target="76">
                    <mxGeometry relative="1" as="geometry"/>
                </mxCell>
                <mxCell id="54" style="edgeStyle=orthogonalEdgeStyle;html=1;exitX=1;exitY=0.5;exitDx=0;exitDy=0;entryX=0.5;entryY=1;entryDx=0;entryDy=0;" edge="1" parent="1" source="57" target="60">
                    <mxGeometry relative="1" as="geometry"/>
                </mxCell>
                <mxCell id="55" style="edgeStyle=orthogonalEdgeStyle;rounded=1;orthogonalLoop=1;jettySize=auto;html=1;exitX=0;exitY=0.5;exitDx=0;exitDy=0;entryX=0.5;entryY=1;entryDx=0;entryDy=0;" edge="1" parent="1" source="57" target="81">
                    <mxGeometry relative="1" as="geometry"/>
                </mxCell>
                <mxCell id="56" style="edgeStyle=orthogonalEdgeStyle;rounded=1;orthogonalLoop=1;jettySize=auto;html=1;exitX=0;exitY=0.5;exitDx=0;exitDy=0;entryX=0.5;entryY=1;entryDx=0;entryDy=0;fontSize=20;" edge="1" parent="1" source="57" target="86">
                    <mxGeometry relative="1" as="geometry"/>
                </mxCell>
                <mxCell id="57" value="&lt;b&gt;&lt;font style=&quot;font-size: 14px&quot;&gt;Controller&lt;/font&gt;&lt;/b&gt;" style="rounded=1;whiteSpace=wrap;html=1;" vertex="1" parent="1">
                    <mxGeometry x="201" y="120" width="120" height="40" as="geometry"/>
                </mxCell>
                <mxCell id="58" style="edgeStyle=orthogonalEdgeStyle;html=1;exitX=1;exitY=0.5;exitDx=0;exitDy=0;entryX=0.5;entryY=0;entryDx=0;entryDy=0;" edge="1" parent="1" source="60" target="64">
                    <mxGeometry relative="1" as="geometry"/>
                </mxCell>
                <mxCell id="59" style="edgeStyle=orthogonalEdgeStyle;rounded=1;orthogonalLoop=1;jettySize=auto;html=1;exitX=1;exitY=0.5;exitDx=0;exitDy=0;" edge="1" parent="1" source="60">
                    <mxGeometry relative="1" as="geometry">
                        <mxPoint x="579.9999999999991" y="280" as="targetPoint"/>
                    </mxGeometry>
                </mxCell>
                <mxCell id="60" value="&lt;b&gt;&lt;font style=&quot;font-size: 14px&quot;&gt;StandLight&lt;br&gt;Service&lt;/font&gt;&lt;/b&gt;" style="rounded=1;whiteSpace=wrap;html=1;" vertex="1" parent="1">
                    <mxGeometry x="360" y="40" width="120" height="40" as="geometry"/>
                </mxCell>
                <mxCell id="61" value="" style="edgeStyle=none;html=1;fontSize=14;rounded=1;" edge="1" parent="1" source="64" target="65">
                    <mxGeometry relative="1" as="geometry"/>
                </mxCell>
                <mxCell id="62" style="edgeStyle=orthogonalEdgeStyle;html=1;exitX=0.5;exitY=1;exitDx=0;exitDy=0;entryX=0.5;entryY=0;entryDx=0;entryDy=0;" edge="1" parent="1" source="64" target="66">
                    <mxGeometry relative="1" as="geometry"/>
                </mxCell>
                <mxCell id="63" style="edgeStyle=orthogonalEdgeStyle;rounded=1;orthogonalLoop=1;jettySize=auto;html=1;exitX=0;exitY=0.5;exitDx=0;exitDy=0;entryX=0.5;entryY=0;entryDx=0;entryDy=0;" edge="1" parent="1" source="64" target="82">
                    <mxGeometry relative="1" as="geometry"/>
                </mxCell>
                <mxCell id="64" value="&lt;b&gt;&lt;font style=&quot;font-size: 14px&quot;&gt;View&lt;/font&gt;&lt;/b&gt;" style="rounded=1;whiteSpace=wrap;html=1;" vertex="1" parent="1">
                    <mxGeometry x="680" y="200" width="120" height="40" as="geometry"/>
                </mxCell>
                <mxCell id="65" value="&lt;b&gt;&lt;font style=&quot;font-size: 14px&quot;&gt;LED&lt;/font&gt;&lt;/b&gt;" style="rounded=1;whiteSpace=wrap;html=1;" vertex="1" parent="1">
                    <mxGeometry x="680" y="280" width="120" height="40" as="geometry"/>
                </mxCell>
                <mxCell id="66" value="&lt;b&gt;&lt;font style=&quot;font-size: 14px&quot;&gt;LCD&lt;/font&gt;&lt;/b&gt;" style="rounded=1;whiteSpace=wrap;html=1;" vertex="1" parent="1">
                    <mxGeometry x="840" y="280" width="120" height="40" as="geometry"/>
                </mxCell>
                <mxCell id="67" style="edgeStyle=orthogonalEdgeStyle;html=1;exitX=0.5;exitY=0;exitDx=0;exitDy=0;entryX=0.5;entryY=0;entryDx=0;entryDy=0;" edge="1" parent="1" source="68" target="70">
                    <mxGeometry relative="1" as="geometry"/>
                </mxCell>
                <mxCell id="68" value="&lt;span style=&quot;font-size: 14px&quot;&gt;&lt;b&gt;Clock&lt;br&gt;Service&lt;/b&gt;&lt;/span&gt;" style="rounded=1;whiteSpace=wrap;html=1;" vertex="1" parent="1">
                    <mxGeometry x="201" y="40" width="120" height="40" as="geometry"/>
                </mxCell>
                <mxCell id="69" value="" style="edgeStyle=none;html=1;fontSize=14;rounded=1;" edge="1" parent="1" source="70" target="66">
                    <mxGeometry relative="1" as="geometry"/>
                </mxCell>
                <mxCell id="70" value="&lt;b&gt;&lt;font style=&quot;font-size: 14px&quot;&gt;Clock&lt;br&gt;View&lt;/font&gt;&lt;/b&gt;" style="rounded=1;whiteSpace=wrap;html=1;" vertex="1" parent="1">
                    <mxGeometry x="840" y="200" width="120" height="40" as="geometry"/>
                </mxCell>
                <mxCell id="71" value="&lt;span style=&quot;font-size: 14px&quot;&gt;&lt;b&gt;ClockCheck&lt;/b&gt;&lt;/span&gt;" style="rounded=1;whiteSpace=wrap;html=1;" vertex="1" parent="1">
                    <mxGeometry x="361" y="280" width="120" height="40" as="geometry"/>
                </mxCell>
                <mxCell id="72" value="5" style="text;html=1;strokeColor=none;fillColor=none;align=center;verticalAlign=middle;whiteSpace=wrap;rounded=0;fontSize=14;" vertex="1" parent="1">
                    <mxGeometry x="251" y="260" width="60" height="30" as="geometry"/>
                </mxCell>
                <mxCell id="73" value="5" style="text;html=1;strokeColor=none;fillColor=none;align=center;verticalAlign=middle;whiteSpace=wrap;rounded=0;fontSize=14;" vertex="1" parent="1">
                    <mxGeometry x="730" y="260" width="60" height="30" as="geometry"/>
                </mxCell>
                <mxCell id="74" value="&lt;span style=&quot;font-size: 14px&quot;&gt;&lt;b&gt;dht11&lt;/b&gt;&lt;/span&gt;" style="rounded=1;whiteSpace=wrap;html=1;" vertex="1" parent="1">
                    <mxGeometry x="41" y="280" width="120" height="40" as="geometry"/>
                </mxCell>
                <mxCell id="75" style="edgeStyle=orthogonalEdgeStyle;rounded=1;orthogonalLoop=1;jettySize=auto;html=1;exitX=0.5;exitY=0;exitDx=0;exitDy=0;entryX=0.5;entryY=0;entryDx=0;entryDy=0;" edge="1" parent="1" source="76" target="80">
                    <mxGeometry relative="1" as="geometry"/>
                </mxCell>
                <mxCell id="76" value="&lt;span style=&quot;font-size: 14px&quot;&gt;&lt;b&gt;TempHumid&lt;br&gt;Service&lt;br&gt;&lt;/b&gt;&lt;/span&gt;" style="rounded=1;whiteSpace=wrap;html=1;" vertex="1" parent="1">
                    <mxGeometry x="40" y="40" width="120" height="40" as="geometry"/>
                </mxCell>
                <mxCell id="77" value="&lt;span style=&quot;font-size: 14px;&quot;&gt;&lt;b&gt;모니터&lt;/b&gt;&lt;/span&gt;" style="rounded=1;whiteSpace=wrap;html=1;" vertex="1" parent="1">
                    <mxGeometry x="999" y="280" width="120" height="40" as="geometry"/>
                </mxCell>
                <mxCell id="78" value="" style="edgeStyle=orthogonalEdgeStyle;rounded=0;orthogonalLoop=1;jettySize=auto;html=1;" edge="1" parent="1" source="80" target="77">
                    <mxGeometry relative="1" as="geometry"/>
                </mxCell>
                <mxCell id="79" style="edgeStyle=orthogonalEdgeStyle;rounded=1;orthogonalLoop=1;jettySize=auto;html=1;exitX=0.5;exitY=1;exitDx=0;exitDy=0;entryX=0.5;entryY=0;entryDx=0;entryDy=0;" edge="1" parent="1" source="80" target="66">
                    <mxGeometry relative="1" as="geometry"/>
                </mxCell>
                <mxCell id="80" value="&lt;b style=&quot;font-size: 14px;&quot;&gt;TempHumid&lt;/b&gt;&lt;span style=&quot;font-size: 14px;&quot;&gt;&lt;b&gt;&lt;br&gt;View&lt;br&gt;&lt;/b&gt;&lt;/span&gt;" style="rounded=1;whiteSpace=wrap;html=1;" vertex="1" parent="1">
                    <mxGeometry x="999" y="200" width="120" height="40" as="geometry"/>
                </mxCell>
                <mxCell id="81" value="&lt;span style=&quot;font-size: 14px&quot;&gt;&lt;b&gt;DHT_Data&lt;br&gt;&lt;/b&gt;&lt;/span&gt;" style="rounded=1;whiteSpace=wrap;html=1;" vertex="1" parent="1">
                    <mxGeometry x="-120" y="40" width="120" height="40" as="geometry"/>
                </mxCell>
                <mxCell id="82" value="&lt;b&gt;&lt;font style=&quot;font-size: 14px&quot;&gt;&amp;lt;&amp;lt;enum&amp;gt;&amp;gt;&lt;br&gt;lightState&lt;br&gt;&lt;/font&gt;&lt;/b&gt;" style="rounded=1;whiteSpace=wrap;html=1;" vertex="1" parent="1">
                    <mxGeometry x="520" y="280" width="120" height="40" as="geometry"/>
                </mxCell>
                <mxCell id="83" value="&lt;span style=&quot;font-size: 14px;&quot;&gt;&lt;b&gt;Motor-PWM&lt;br&gt;&lt;/b&gt;&lt;/span&gt;" style="rounded=1;whiteSpace=wrap;html=1;" vertex="1" parent="1">
                    <mxGeometry x="-119" y="280" width="120" height="40" as="geometry"/>
                </mxCell>
                <mxCell id="84" value="&lt;span style=&quot;font-size: 14px;&quot;&gt;&lt;b&gt;밝기&lt;br&gt;상태 초기화&lt;br&gt;카운트 모드&lt;br&gt;모드 변경- 타이머&lt;br&gt;&lt;/b&gt;&lt;/span&gt;" style="rounded=1;whiteSpace=wrap;html=1;" vertex="1" parent="1">
                    <mxGeometry x="201" y="330" width="120" height="100" as="geometry"/>
                </mxCell>
                <mxCell id="85" style="edgeStyle=orthogonalEdgeStyle;rounded=1;orthogonalLoop=1;jettySize=auto;html=1;exitX=0.5;exitY=0;exitDx=0;exitDy=0;entryX=0.5;entryY=0;entryDx=0;entryDy=0;fontSize=20;" edge="1" parent="1" source="86" target="89">
                    <mxGeometry relative="1" as="geometry">
                        <Array as="points">
                            <mxPoint x="-220" y="10"/>
                            <mxPoint x="1220" y="10"/>
                        </Array>
                    </mxGeometry>
                </mxCell>
                <mxCell id="86" value="&lt;span style=&quot;font-size: 14px&quot;&gt;&lt;b&gt;Motor&lt;br&gt;Service&lt;br&gt;&lt;/b&gt;&lt;/span&gt;" style="rounded=1;whiteSpace=wrap;html=1;" vertex="1" parent="1">
                    <mxGeometry x="-280" y="40" width="120" height="40" as="geometry"/>
                </mxCell>
                <mxCell id="87" style="edgeStyle=orthogonalEdgeStyle;rounded=1;orthogonalLoop=1;jettySize=auto;html=1;exitX=0.5;exitY=1;exitDx=0;exitDy=0;entryX=0.5;entryY=0;entryDx=0;entryDy=0;fontSize=20;" edge="1" parent="1" source="89" target="66">
                    <mxGeometry relative="1" as="geometry"/>
                </mxCell>
                <mxCell id="88" style="edgeStyle=orthogonalEdgeStyle;rounded=1;orthogonalLoop=1;jettySize=auto;html=1;exitX=0.5;exitY=1;exitDx=0;exitDy=0;entryX=0.5;entryY=0;entryDx=0;entryDy=0;fontSize=20;" edge="1" parent="1" source="89" target="90">
                    <mxGeometry relative="1" as="geometry"/>
                </mxCell>
                <mxCell id="89" value="&lt;span style=&quot;font-size: 14px;&quot;&gt;&lt;b&gt;Motor&lt;br&gt;View&lt;br&gt;&lt;/b&gt;&lt;/span&gt;" style="rounded=1;whiteSpace=wrap;html=1;" vertex="1" parent="1">
                    <mxGeometry x="1160" y="200" width="120" height="40" as="geometry"/>
                </mxCell>
                <mxCell id="90" value="&lt;b&gt;&lt;font style=&quot;font-size: 14px&quot;&gt;Motor&lt;/font&gt;&lt;/b&gt;" style="rounded=1;whiteSpace=wrap;html=1;" vertex="1" parent="1">
                    <mxGeometry x="1160" y="280" width="120" height="40" as="geometry"/>
                </mxCell>
            </root>
        </mxGraphModel>
    </diagram>
    <diagram id="JMYObuIH1QSER_L9iBrt" name="페이지-2">
        <mxGraphModel dx="1454" dy="630" grid="1" gridSize="10" guides="1" tooltips="1" connect="1" arrows="1" fold="1" page="1" pageScale="1" pageWidth="827" pageHeight="1169" math="0" shadow="0">
            <root>
                <mxCell id="Q607Y2rKxZQUFugG3BdK-0"/>
                <mxCell id="Q607Y2rKxZQUFugG3BdK-1" parent="Q607Y2rKxZQUFugG3BdK-0"/>
                <mxCell id="XUThxh31XiLSm-2z7mRA-0" value="Button" style="whiteSpace=wrap;html=1;fontSize=18;" parent="Q607Y2rKxZQUFugG3BdK-1" vertex="1">
                    <mxGeometry x="150" y="220" width="120" height="60" as="geometry"/>
                </mxCell>
                <mxCell id="XUThxh31XiLSm-2z7mRA-1" value="" style="edgeStyle=none;html=1;fontSize=18;" parent="Q607Y2rKxZQUFugG3BdK-1" source="XUThxh31XiLSm-2z7mRA-2" target="XUThxh31XiLSm-2z7mRA-0" edge="1">
                    <mxGeometry relative="1" as="geometry"/>
                </mxCell>
                <mxCell id="Xn4zP_rzqBb-KwKWEkbt-1" style="edgeStyle=orthogonalEdgeStyle;rounded=0;html=1;exitX=1;exitY=0.5;exitDx=0;exitDy=0;fontSize=18;" parent="Q607Y2rKxZQUFugG3BdK-1" source="XUThxh31XiLSm-2z7mRA-2" target="Xn4zP_rzqBb-KwKWEkbt-0" edge="1">
                    <mxGeometry relative="1" as="geometry"/>
                </mxCell>
                <mxCell id="XUThxh31XiLSm-2z7mRA-2" value="Listener" style="whiteSpace=wrap;html=1;fontSize=18;" parent="Q607Y2rKxZQUFugG3BdK-1" vertex="1">
                    <mxGeometry x="150" y="80" width="120" height="60" as="geometry"/>
                </mxCell>
                <mxCell id="XUThxh31XiLSm-2z7mRA-3" value="LED" style="whiteSpace=wrap;html=1;fontSize=18;" parent="Q607Y2rKxZQUFugG3BdK-1" vertex="1">
                    <mxGeometry x="540" y="220" width="120" height="60" as="geometry"/>
                </mxCell>
                <mxCell id="XUThxh31XiLSm-2z7mRA-6" value="이벤트 감시 기능" style="text;html=1;align=center;verticalAlign=middle;resizable=0;points=[];autosize=1;strokeColor=none;fillColor=none;fontSize=18;" parent="Q607Y2rKxZQUFugG3BdK-1" vertex="1">
                    <mxGeometry x="130" y="50" width="150" height="30" as="geometry"/>
                </mxCell>
                <mxCell id="z8fZrk0xQkMEeZACTWGU-1" style="edgeStyle=orthogonalEdgeStyle;rounded=0;html=1;exitX=1;exitY=0.5;exitDx=0;exitDy=0;entryX=0;entryY=0.5;entryDx=0;entryDy=0;fontSize=18;" parent="Q607Y2rKxZQUFugG3BdK-1" source="Xn4zP_rzqBb-KwKWEkbt-0" target="z8fZrk0xQkMEeZACTWGU-0" edge="1">
                    <mxGeometry relative="1" as="geometry"/>
                </mxCell>
                <mxCell id="Xn4zP_rzqBb-KwKWEkbt-0" value="controller" style="whiteSpace=wrap;html=1;fontSize=18;" parent="Q607Y2rKxZQUFugG3BdK-1" vertex="1">
                    <mxGeometry x="350" y="80" width="120" height="60" as="geometry"/>
                </mxCell>
                <mxCell id="z8fZrk0xQkMEeZACTWGU-2" style="edgeStyle=orthogonalEdgeStyle;rounded=0;html=1;exitX=0.5;exitY=1;exitDx=0;exitDy=0;fontSize=18;" parent="Q607Y2rKxZQUFugG3BdK-1" source="z8fZrk0xQkMEeZACTWGU-0" target="XUThxh31XiLSm-2z7mRA-3" edge="1">
                    <mxGeometry relative="1" as="geometry"/>
                </mxCell>
                <mxCell id="z8fZrk0xQkMEeZACTWGU-0" value="View" style="whiteSpace=wrap;html=1;fontSize=18;" parent="Q607Y2rKxZQUFugG3BdK-1" vertex="1">
                    <mxGeometry x="540" y="80" width="120" height="60" as="geometry"/>
                </mxCell>
                <mxCell id="Mj13Q_bmfDrJVbiAXAjX-0" value="Data 분배" style="text;html=1;align=center;verticalAlign=middle;resizable=0;points=[];autosize=1;strokeColor=none;fillColor=none;fontSize=18;" parent="Q607Y2rKxZQUFugG3BdK-1" vertex="1">
                    <mxGeometry x="369" y="50" width="90" height="30" as="geometry"/>
                </mxCell>
                <mxCell id="Mj13Q_bmfDrJVbiAXAjX-1" value="출력 담당" style="text;html=1;align=center;verticalAlign=middle;resizable=0;points=[];autosize=1;strokeColor=none;fillColor=none;fontSize=18;" parent="Q607Y2rKxZQUFugG3BdK-1" vertex="1">
                    <mxGeometry x="555" y="50" width="90" height="30" as="geometry"/>
                </mxCell>
                <mxCell id="Mj13Q_bmfDrJVbiAXAjX-2" value="밝기 조정 버튼" style="text;html=1;align=center;verticalAlign=middle;resizable=0;points=[];autosize=1;strokeColor=none;fillColor=none;fontSize=18;" parent="Q607Y2rKxZQUFugG3BdK-1" vertex="1">
                    <mxGeometry x="150" y="280" width="130" height="30" as="geometry"/>
                </mxCell>
                <mxCell id="Mj13Q_bmfDrJVbiAXAjX-3" value="밝기에 따른 LED 개수 On/Off" style="text;html=1;align=center;verticalAlign=middle;resizable=0;points=[];autosize=1;strokeColor=none;fillColor=none;fontSize=18;" parent="Q607Y2rKxZQUFugG3BdK-1" vertex="1">
                    <mxGeometry x="480" y="280" width="250" height="30" as="geometry"/>
                </mxCell>
                <mxCell id="Mj13Q_bmfDrJVbiAXAjX-4" value="1" style="text;html=1;align=center;verticalAlign=middle;resizable=0;points=[];autosize=1;strokeColor=none;fillColor=none;" parent="Q607Y2rKxZQUFugG3BdK-1" vertex="1">
                    <mxGeometry x="210" y="200" width="20" height="20" as="geometry"/>
                </mxCell>
                <mxCell id="Mj13Q_bmfDrJVbiAXAjX-5" value="1" style="text;html=1;align=center;verticalAlign=middle;resizable=0;points=[];autosize=1;strokeColor=none;fillColor=none;" parent="Q607Y2rKxZQUFugG3BdK-1" vertex="1">
                    <mxGeometry x="210" y="140" width="20" height="20" as="geometry"/>
                </mxCell>
                <mxCell id="Mj13Q_bmfDrJVbiAXAjX-6" value="1" style="text;html=1;align=center;verticalAlign=middle;resizable=0;points=[];autosize=1;strokeColor=none;fillColor=none;" parent="Q607Y2rKxZQUFugG3BdK-1" vertex="1">
                    <mxGeometry x="600" y="140" width="20" height="20" as="geometry"/>
                </mxCell>
                <mxCell id="Mj13Q_bmfDrJVbiAXAjX-7" value="5" style="text;html=1;align=center;verticalAlign=middle;resizable=0;points=[];autosize=1;strokeColor=none;fillColor=none;" parent="Q607Y2rKxZQUFugG3BdK-1" vertex="1">
                    <mxGeometry x="600" y="200" width="20" height="20" as="geometry"/>
                </mxCell>
                <mxCell id="Mj13Q_bmfDrJVbiAXAjX-9" value="상태머신" style="text;html=1;align=center;verticalAlign=middle;resizable=0;points=[];autosize=1;strokeColor=none;fillColor=none;fontSize=18;" parent="Q607Y2rKxZQUFugG3BdK-1" vertex="1">
                    <mxGeometry x="369" y="140" width="90" height="30" as="geometry"/>
                </mxCell>
                <mxCell id="Mj13Q_bmfDrJVbiAXAjX-10" value="Button" style="whiteSpace=wrap;html=1;fontSize=18;" parent="Q607Y2rKxZQUFugG3BdK-1" vertex="1">
                    <mxGeometry x="100" y="800" width="120" height="60" as="geometry"/>
                </mxCell>
                <mxCell id="Mj13Q_bmfDrJVbiAXAjX-11" value="" style="edgeStyle=none;html=1;fontSize=18;" parent="Q607Y2rKxZQUFugG3BdK-1" source="Mj13Q_bmfDrJVbiAXAjX-13" target="Mj13Q_bmfDrJVbiAXAjX-10" edge="1">
                    <mxGeometry relative="1" as="geometry"/>
                </mxCell>
                <mxCell id="Mj13Q_bmfDrJVbiAXAjX-12" style="edgeStyle=orthogonalEdgeStyle;rounded=0;html=1;exitX=1;exitY=0.5;exitDx=0;exitDy=0;fontSize=18;" parent="Q607Y2rKxZQUFugG3BdK-1" source="Mj13Q_bmfDrJVbiAXAjX-13" target="Mj13Q_bmfDrJVbiAXAjX-17" edge="1">
                    <mxGeometry relative="1" as="geometry"/>
                </mxCell>
                <mxCell id="Mj13Q_bmfDrJVbiAXAjX-13" value="Listener" style="whiteSpace=wrap;html=1;fontSize=18;" parent="Q607Y2rKxZQUFugG3BdK-1" vertex="1">
                    <mxGeometry x="100" y="660" width="120" height="60" as="geometry"/>
                </mxCell>
                <mxCell id="Mj13Q_bmfDrJVbiAXAjX-14" value="LED" style="whiteSpace=wrap;html=1;fontSize=18;" parent="Q607Y2rKxZQUFugG3BdK-1" vertex="1">
                    <mxGeometry x="490" y="800" width="120" height="60" as="geometry"/>
                </mxCell>
                <mxCell id="Mj13Q_bmfDrJVbiAXAjX-15" value="이벤트 감시 기능" style="text;html=1;align=center;verticalAlign=middle;resizable=0;points=[];autosize=1;strokeColor=none;fillColor=none;fontSize=18;" parent="Q607Y2rKxZQUFugG3BdK-1" vertex="1">
                    <mxGeometry x="80" y="630" width="150" height="30" as="geometry"/>
                </mxCell>
                <mxCell id="Mj13Q_bmfDrJVbiAXAjX-31" style="edgeStyle=none;html=1;exitX=0.5;exitY=0;exitDx=0;exitDy=0;entryX=0.5;entryY=1;entryDx=0;entryDy=0;" parent="Q607Y2rKxZQUFugG3BdK-1" source="Mj13Q_bmfDrJVbiAXAjX-17" target="Mj13Q_bmfDrJVbiAXAjX-30" edge="1">
                    <mxGeometry relative="1" as="geometry"/>
                </mxCell>
                <mxCell id="Mj13Q_bmfDrJVbiAXAjX-17" value="Controller" style="whiteSpace=wrap;html=1;fontSize=18;" parent="Q607Y2rKxZQUFugG3BdK-1" vertex="1">
                    <mxGeometry x="300" y="660" width="120" height="60" as="geometry"/>
                </mxCell>
                <mxCell id="Mj13Q_bmfDrJVbiAXAjX-18" style="edgeStyle=orthogonalEdgeStyle;rounded=0;html=1;exitX=0.5;exitY=1;exitDx=0;exitDy=0;fontSize=18;" parent="Q607Y2rKxZQUFugG3BdK-1" source="Mj13Q_bmfDrJVbiAXAjX-19" target="Mj13Q_bmfDrJVbiAXAjX-14" edge="1">
                    <mxGeometry relative="1" as="geometry"/>
                </mxCell>
                <mxCell id="Mj13Q_bmfDrJVbiAXAjX-35" style="edgeStyle=orthogonalEdgeStyle;rounded=0;html=1;exitX=0.75;exitY=0;exitDx=0;exitDy=0;entryX=0.75;entryY=1;entryDx=0;entryDy=0;" parent="Q607Y2rKxZQUFugG3BdK-1" source="Mj13Q_bmfDrJVbiAXAjX-19" target="Mj13Q_bmfDrJVbiAXAjX-33" edge="1">
                    <mxGeometry relative="1" as="geometry"/>
                </mxCell>
                <mxCell id="Mj13Q_bmfDrJVbiAXAjX-19" value="View" style="whiteSpace=wrap;html=1;fontSize=18;" parent="Q607Y2rKxZQUFugG3BdK-1" vertex="1">
                    <mxGeometry x="490" y="660" width="120" height="60" as="geometry"/>
                </mxCell>
                <mxCell id="Mj13Q_bmfDrJVbiAXAjX-20" value="Data 분배" style="text;html=1;align=center;verticalAlign=middle;resizable=0;points=[];autosize=1;strokeColor=none;fillColor=none;fontSize=18;" parent="Q607Y2rKxZQUFugG3BdK-1" vertex="1">
                    <mxGeometry x="316" y="720" width="90" height="30" as="geometry"/>
                </mxCell>
                <mxCell id="Mj13Q_bmfDrJVbiAXAjX-21" value="출력 담당" style="text;html=1;align=center;verticalAlign=middle;resizable=0;points=[];autosize=1;strokeColor=none;fillColor=none;fontSize=18;" parent="Q607Y2rKxZQUFugG3BdK-1" vertex="1">
                    <mxGeometry x="611" y="680" width="90" height="30" as="geometry"/>
                </mxCell>
                <mxCell id="Mj13Q_bmfDrJVbiAXAjX-22" value="밝기 조정 버튼" style="text;html=1;align=center;verticalAlign=middle;resizable=0;points=[];autosize=1;strokeColor=none;fillColor=none;fontSize=18;" parent="Q607Y2rKxZQUFugG3BdK-1" vertex="1">
                    <mxGeometry x="100" y="860" width="130" height="30" as="geometry"/>
                </mxCell>
                <mxCell id="Mj13Q_bmfDrJVbiAXAjX-23" value="밝기에 따른 LED 개수 On/Off" style="text;html=1;align=center;verticalAlign=middle;resizable=0;points=[];autosize=1;strokeColor=none;fillColor=none;fontSize=18;" parent="Q607Y2rKxZQUFugG3BdK-1" vertex="1">
                    <mxGeometry x="430" y="860" width="250" height="30" as="geometry"/>
                </mxCell>
                <mxCell id="Mj13Q_bmfDrJVbiAXAjX-24" value="1" style="text;html=1;align=center;verticalAlign=middle;resizable=0;points=[];autosize=1;strokeColor=none;fillColor=none;" parent="Q607Y2rKxZQUFugG3BdK-1" vertex="1">
                    <mxGeometry x="160" y="780" width="20" height="20" as="geometry"/>
                </mxCell>
                <mxCell id="Mj13Q_bmfDrJVbiAXAjX-25" value="1" style="text;html=1;align=center;verticalAlign=middle;resizable=0;points=[];autosize=1;strokeColor=none;fillColor=none;" parent="Q607Y2rKxZQUFugG3BdK-1" vertex="1">
                    <mxGeometry x="160" y="720" width="20" height="20" as="geometry"/>
                </mxCell>
                <mxCell id="Mj13Q_bmfDrJVbiAXAjX-26" value="1" style="text;html=1;align=center;verticalAlign=middle;resizable=0;points=[];autosize=1;strokeColor=none;fillColor=none;" parent="Q607Y2rKxZQUFugG3BdK-1" vertex="1">
                    <mxGeometry x="550" y="720" width="20" height="20" as="geometry"/>
                </mxCell>
                <mxCell id="Mj13Q_bmfDrJVbiAXAjX-27" value="5" style="text;html=1;align=center;verticalAlign=middle;resizable=0;points=[];autosize=1;strokeColor=none;fillColor=none;" parent="Q607Y2rKxZQUFugG3BdK-1" vertex="1">
                    <mxGeometry x="550" y="780" width="20" height="20" as="geometry"/>
                </mxCell>
                <mxCell id="Mj13Q_bmfDrJVbiAXAjX-28" value="상태머신" style="text;html=1;align=center;verticalAlign=middle;resizable=0;points=[];autosize=1;strokeColor=none;fillColor=none;fontSize=18;" parent="Q607Y2rKxZQUFugG3BdK-1" vertex="1">
                    <mxGeometry x="300" y="490" width="90" height="30" as="geometry"/>
                </mxCell>
                <mxCell id="Mj13Q_bmfDrJVbiAXAjX-32" style="edgeStyle=orthogonalEdgeStyle;html=1;exitX=1;exitY=0.5;exitDx=0;exitDy=0;entryX=0.5;entryY=0;entryDx=0;entryDy=0;rounded=0;" parent="Q607Y2rKxZQUFugG3BdK-1" source="Mj13Q_bmfDrJVbiAXAjX-30" target="Mj13Q_bmfDrJVbiAXAjX-19" edge="1">
                    <mxGeometry relative="1" as="geometry"/>
                </mxCell>
                <mxCell id="Mj13Q_bmfDrJVbiAXAjX-34" style="edgeStyle=orthogonalEdgeStyle;rounded=0;html=1;exitX=0.75;exitY=0;exitDx=0;exitDy=0;entryX=0;entryY=0.5;entryDx=0;entryDy=0;" parent="Q607Y2rKxZQUFugG3BdK-1" source="Mj13Q_bmfDrJVbiAXAjX-30" target="Mj13Q_bmfDrJVbiAXAjX-33" edge="1">
                    <mxGeometry relative="1" as="geometry"/>
                </mxCell>
                <mxCell id="Mj13Q_bmfDrJVbiAXAjX-30" value="Service" style="whiteSpace=wrap;html=1;fontSize=18;" parent="Q607Y2rKxZQUFugG3BdK-1" vertex="1">
                    <mxGeometry x="300" y="520" width="120" height="60" as="geometry"/>
                </mxCell>
                <mxCell id="Mj13Q_bmfDrJVbiAXAjX-33" value="&amp;lt;&amp;lt;enum&amp;gt;&amp;gt;&lt;br&gt;lightState" style="whiteSpace=wrap;html=1;fontSize=18;" parent="Q607Y2rKxZQUFugG3BdK-1" vertex="1">
                    <mxGeometry x="490" y="460" width="120" height="60" as="geometry"/>
                </mxCell>
            </root>
        </mxGraphModel>
    </diagram>
</mxfile>